<svg xmlns="http://www.w3.org/2000/svg" xmlns:xlink="http://www.w3.org/1999/xlink" version="1.1" id="Layer_1" x="0px" y="0px" width="100px" height="67.5px" viewBox="0 0 100 67.5" enable-background="new 0 0 100 67.5" xml:space="preserve">
<path fill="#000000" d="M96.615,40.626c0,0-13.195-22.277-26.554-29.516c-12.646-6.853-25.522,1.597-25.522,1.597  s-4.244-3.529-5.094-2.974s0.82,6.154,0.82,6.154s-2.346,1.678-3.595,5.257L3.385,13.899l32.729,12.699c0,0-0.826,6.454,1.597,9.865  c0,0-0.221-2.861,1.399-2.756l0.312,1.443c0,0,0.497-1.391,1.307-1.339c0,0,1.247,2.725,1.645,6.004  c0.396,3.28,1.443,15.346,10.146,12.86c0,0,0.472-0.986,0.576-2.606c0,0,0.946,1.079,1.985,0.739  c1.039-0.339,2.02-2.919,1.732-4.768c-0.286-1.85-1.49-8.359,3.186-14.601c0,0,0.58,2.231,0.47,5.279  c-0.094,2.63,0.324,7.545,1.519,11.08c0.66,1.956,1.544,8.611,0.694,11.229C62.681,59.029,88.39,60.834,96.615,40.626z"/>
</svg>